<svg width="60" height="60" viewBox="0 0 60 60" fill="none" xmlns="http://www.w3.org/2000/svg">
<g clip-path="url(#clip0_153_78)">
<path d="M19.0209 54.4107H20.4468V38.4411L24.6388 34.2491L38.7833 48.3935L39.8099 47.3669L28.0038 35.5608H31.6255L40.0095 43.9449L41.0361 42.9183L33.6217 35.5038C37.2148 35.1046 40.038 32.0247 40.038 28.3175C40.038 25.751 38.6977 23.4981 36.673 22.2148L41.0361 17.8517L46.3403 12.5475L45.3137 11.5209L35.3042 21.5304C34.5057 21.2453 33.6787 21.0741 32.7662 21.0741H20.4468V5.58936H19.0209V21.1312V37.8707L15.1426 41.7491V17.3954H13.7167V45.1996L19.0209 39.8954V54.4107ZM24.7243 34.1635L27.4335 31.4544L30.1426 34.1635H24.7243ZM38.5551 28.346C38.5551 31.5399 35.9601 34.135 32.7662 34.135H32.1958L28.4601 30.3992L35.5894 23.27C37.3574 24.2966 38.5551 26.1787 38.5551 28.346ZM32.7662 22.557C33.251 22.557 33.7072 22.6141 34.135 22.7281L20.4468 36.4164V22.557H32.7662Z" fill="white"/>
<path d="M0 0V60H60V0H0ZM58.5741 58.5741H1.42586V1.42586H58.5741V58.5741Z" fill="white"/>
</g>
<defs>
<clipPath id="clip0_153_78">
<rect width="60" height="60" fill="white"/>
</clipPath>
</defs>
</svg>
